# This file uses centimeters as units for non-parametric coordinates.

mtllib cloudTransparent.mtl
g default
v -10.751843 -1.659838 -1.178851
v -10.356819 -1.659838 0.326564
v -9.210414 -1.659838 1.684619
v -7.424846 -1.659838 2.762377
v -5.174900 -1.659838 3.454340
v -2.680816 -1.659838 3.692774
v -0.186732 -1.659838 3.454340
v 2.063214 -1.659838 2.762376
v 3.848782 -1.659838 1.684618
v 4.995186 -1.659838 0.326564
v 5.390210 -1.659838 -1.178851
v -10.751843 3.248908 -1.178851
v -10.356819 3.248908 0.326564
v -9.210414 3.248908 1.684619
v -7.424846 3.248908 2.762377
v -5.174900 3.248908 3.454340
v -2.680816 3.248908 3.692774
v -0.186732 3.248908 3.454340
v 2.063214 3.248908 2.762376
v 3.848782 3.248908 1.684618
v 4.995186 3.248908 0.326564
v 5.390210 3.248908 -1.178851
v -1.156380 -2.689925 2.336046
v 10.098338 -2.689925 2.336046
v -1.156380 1.064000 2.336046
v 10.098338 1.064000 2.336046
v -1.211991 -3.855961 3.622845
v -10.625437 -3.855961 3.622845
v -1.211991 -0.952587 3.622845
v -10.625437 -0.952587 3.622845
v -7.676198 0.624767 -5.215910
v -8.425344 0.624767 -4.339564
v -8.754848 0.624767 -3.032068
v -8.632454 0.624767 -1.421408
v -8.070147 0.624767 0.334751
v -7.122965 0.624767 2.064506
v -5.883627 0.624767 3.598535
v -4.473449 0.624767 4.786678
v -3.030468 0.624767 5.512630
v -1.695932 0.624767 5.705331
v -0.600476 0.624767 5.345917
v -7.676198 3.882361 -5.215910
v -8.425344 3.882361 -4.339564
v -8.754848 3.882361 -3.032068
v -8.632454 3.882361 -1.421408
v -8.070147 3.882361 0.334751
v -7.122965 3.882361 2.064506
v -5.883627 3.882361 3.598535
v -4.473449 3.882361 4.786678
v -3.030468 3.882361 5.512630
v -1.695932 3.882361 5.705331
v -0.600476 3.882361 5.345917
v -6.622774 -2.183880 2.735054
v -5.099011 -2.183880 4.013144
v -3.062068 -2.183880 4.651647
v -0.711337 -2.183880 4.588058
v 1.723076 -2.183880 3.828603
v 4.002875 -2.183880 2.447623
v 5.904896 -2.183880 0.580299
v 7.242957 -2.183880 -1.590584
v 7.886078 -2.183880 -3.852524
v 7.771307 -2.183880 -5.984107
v 6.909879 -2.183880 -7.776678
v -6.622774 3.069454 2.735054
v -5.099011 3.069454 4.013144
v -3.062068 3.069454 4.651647
v -0.711337 3.069454 4.588058
v 1.723076 3.069454 3.828603
v 4.002875 3.069454 2.447623
v 5.904896 3.069454 0.580299
v 7.242957 3.069454 -1.590584
v 7.886078 3.069454 -3.852524
v 7.771307 3.069454 -5.984107
v 6.909879 3.069454 -7.776678
vt -0.002552 0.381432
vt 0.098225 0.381432
vt 0.199002 0.381432
vt 0.299779 0.381432
vt 0.400556 0.381432
vt 0.501333 0.381432
vt 0.602110 0.381432
vt 0.702886 0.381432
vt 0.803663 0.381432
vt 0.904440 0.381432
vt 1.005217 0.381432
vt -0.002552 0.604367
vt 0.098225 0.604367
vt 0.199002 0.604367
vt 0.299779 0.604367
vt 0.400556 0.604367
vt 0.501333 0.604367
vt 0.602110 0.604367
vt 0.702886 0.604367
vt 0.803663 0.604367
vt 0.904440 0.604367
vt 1.005217 0.604367
vt 0.025470 0.592879
vt 0.970947 0.592879
vt 0.970947 0.937270
vt 0.025470 0.937270
vt 0.025470 0.066313
vt 0.970947 0.066313
vt 0.970947 0.410704
vt 0.025470 0.410704
vt -0.002552 0.589305
vt 0.098225 0.589305
vt 0.098225 0.946906
vt -0.002552 0.946906
vt 0.199002 0.589305
vt 0.199002 0.946906
vt 0.299779 0.589305
vt 0.299779 0.946906
vt 0.400556 0.589305
vt 0.400556 0.946906
vt 0.501333 0.589305
vt 0.501333 0.946906
vt 0.602110 0.589305
vt 0.602110 0.946906
vt 0.702886 0.589305
vt 0.702886 0.946906
vt 0.803663 0.589305
vt 0.803663 0.946906
vt 0.904440 0.589305
vt 0.904440 0.946906
vt 1.005217 0.589305
vt 1.005217 0.946906
vt -0.002552 0.095679
vt 0.098225 0.095679
vt 0.098225 0.394897
vt -0.002552 0.394897
vt 0.199002 0.095679
vt 0.199002 0.394897
vt 0.299779 0.095679
vt 0.299779 0.394897
vt 0.400556 0.095679
vt 0.400556 0.394897
vt 0.501333 0.095679
vt 0.501333 0.394897
vt 0.602110 0.095679
vt 0.602110 0.394897
vt 0.702886 0.095679
vt 0.702886 0.394897
vt 0.803663 0.095679
vt 0.803663 0.394897
vt 0.904440 0.095679
vt 0.904440 0.394897
vt 1.005217 0.095679
vt 1.005217 0.394897
vn -0.967254 0.000000 0.253810
vn -0.880527 0.000000 0.473995
vn -0.880527 0.000000 0.473995
vn -0.967254 0.000000 0.253810
vn -0.639023 0.000000 0.769188
vn -0.639023 0.000000 0.769188
vn -0.401616 0.000000 0.915808
vn -0.401616 0.000000 0.915808
vn -0.192454 0.000000 0.981306
vn -0.192454 0.000000 0.981306
vn 0.000000 0.000000 1.000000
vn 0.000000 0.000000 1.000000
vn 0.192454 0.000000 0.981306
vn 0.192454 0.000000 0.981306
vn 0.401616 0.000000 0.915808
vn 0.401616 0.000000 0.915808
vn 0.639023 0.000000 0.769188
vn 0.639023 0.000000 0.769188
vn 0.880528 0.000000 0.473995
vn 0.880528 0.000000 0.473995
vn 0.967254 0.000000 0.253809
vn 0.967254 0.000000 0.253809
vn 0.000000 0.000000 1.000000
vn 0.000000 0.000000 1.000000
vn 0.000000 0.000000 1.000000
vn 0.000000 0.000000 1.000000
vn 0.000000 0.000000 1.000000
vn 0.000000 0.000000 1.000000
vn 0.000000 0.000000 1.000000
vn 0.000000 0.000000 1.000000
vn -0.760117 0.000000 -0.649787
vn -0.896596 0.000000 -0.442849
vn -0.896596 0.000000 -0.442849
vn -0.760117 0.000000 -0.649787
vn -0.997491 0.000000 -0.070795
vn -0.997491 0.000000 -0.070795
vn -0.979941 0.000000 0.199288
vn -0.979941 0.000000 0.199288
vn -0.917659 0.000000 0.397370
vn -0.917659 0.000000 0.397370
vn -0.830795 0.000000 0.556578
vn -0.830795 0.000000 0.556578
vn -0.716605 0.000000 0.697479
vn -0.716605 0.000000 0.697479
vn -0.557114 0.000000 0.830436
vn -0.557114 0.000000 0.830436
vn -0.314016 0.000000 0.949418
vn -0.314016 0.000000 0.949418
vn 0.068446 0.000000 0.997655
vn 0.068446 0.000000 0.997655
vn 0.311745 0.000000 0.950166
vn 0.311745 0.000000 0.950166
vn -0.642641 0.000000 0.766168
vn -0.473964 0.000000 0.880544
vn -0.473964 0.000000 0.880544
vn -0.642641 0.000000 0.766168
vn -0.129919 0.000000 0.991525
vn -0.129919 0.000000 0.991525
vn 0.169511 0.000000 0.985528
vn 0.169511 0.000000 0.985528
vn 0.413420 0.000000 0.910540
vn 0.413420 0.000000 0.910540
vn 0.613444 0.000000 0.789739
vn 0.613444 0.000000 0.789739
vn 0.779971 0.000000 0.625815
vn 0.779971 0.000000 0.625815
vn 0.912966 0.000000 0.408036
vn 0.912966 0.000000 0.408036
vn 0.992847 0.000000 0.119397
vn 0.992847 0.000000 0.119397
vn 0.970423 0.000000 -0.241409
vn 0.970423 0.000000 -0.241409
vn 0.901328 0.000000 -0.433137
vn 0.901328 0.000000 -0.433137
s 1
g pCylinder4
usemtl lambert2SG
f 1/1/1 2/2/2 13/13/3 12/12/4
f 2/2/2 3/3/5 14/14/6 13/13/3
f 3/3/5 4/4/7 15/15/8 14/14/6
f 4/4/7 5/5/9 16/16/10 15/15/8
f 5/5/9 6/6/11 17/17/12 16/16/10
f 6/6/11 7/7/13 18/18/14 17/17/12
f 7/7/13 8/8/15 19/19/16 18/18/14
f 8/8/15 9/9/17 20/20/18 19/19/16
f 9/9/17 10/10/19 21/21/20 20/20/18
f 10/10/19 11/11/21 22/22/22 21/21/20
s off
f 23/23/23 24/24/24 26/25/25 25/26/26
f 27/27/27 29/30/28 30/29/29 28/28/30
s 2
f 31/31/31 32/32/32 43/33/33 42/34/34
f 32/32/32 33/35/35 44/36/36 43/33/33
f 33/35/35 34/37/37 45/38/38 44/36/36
f 34/37/37 35/39/39 46/40/40 45/38/38
f 35/39/39 36/41/41 47/42/42 46/40/40
f 36/41/41 37/43/43 48/44/44 47/42/42
f 37/43/43 38/45/45 49/46/46 48/44/44
f 38/45/45 39/47/47 50/48/48 49/46/46
f 39/47/47 40/49/49 51/50/50 50/48/48
f 40/49/49 41/51/51 52/52/52 51/50/50
s 3
f 53/53/53 54/54/54 65/55/55 64/56/56
f 54/54/54 55/57/57 66/58/58 65/55/55
f 55/57/57 56/59/59 67/60/60 66/58/58
f 56/59/59 57/61/61 68/62/62 67/60/60
f 57/61/61 58/63/63 69/64/64 68/62/62
f 58/63/63 59/65/65 70/66/66 69/64/64
f 59/65/65 60/67/67 71/68/68 70/66/66
f 60/67/67 61/69/69 72/70/70 71/68/68
f 61/69/69 62/71/71 73/72/72 72/70/70
f 62/71/71 63/73/73 74/74/74 73/72/72
